<?xml version="1.0" standalone="no"?><!DOCTYPE svg PUBLIC "-//W3C//DTD SVG 1.1//EN" "http://www.w3.org/Graphics/SVG/1.1/DTD/svg11.dtd"><svg t="1621762169084" class="icon" viewBox="0 0 1024 1024" version="1.1" xmlns="http://www.w3.org/2000/svg" p-id="1133" xmlns:xlink="http://www.w3.org/1999/xlink" width="200" height="200"><defs><style type="text/css"></style></defs><path d="M630.4 992C476.8 992 352 867.2 352 713.6c0-153.6 124.8-278.4 278.4-278.4 153.6 0 278.4 124.8 278.4 278.4C908.8 867.2 784 992 630.4 992z" fill="#ECBC28" p-id="1134" data-spm-anchor-id="a313x.7781069.0.i0" class="selected"></path><path d="M456 993.6c-6.4 0-12.8-1.6-17.6-6.4L51.2 662.4c-6.4-4.8-9.6-11.2-9.6-19.2s1.6-14.4 6.4-20.8L510.4 72c6.4-6.4 16-11.2 24-9.6l104 12.8c16 1.6 25.6 16 24 30.4-1.6 16-16 25.6-30.4 24l-89.6-11.2L107.2 636.8l345.6 289.6 435.2-518.4-73.6-257.6-54.4-6.4c-16-1.6-25.6-16-24-30.4 1.6-16 16-25.6 30.4-24l73.6 8c11.2 1.6 20.8 9.6 24 20.8l83.2 289.6c3.2 9.6 0 19.2-4.8 25.6l-464 550.4c-4.8 6.4-11.2 9.6-19.2 9.6h-3.2z" fill="#103E26" p-id="1135"></path><path d="M300.8 622.4c-6.4 0-12.8-1.6-17.6-6.4-12.8-9.6-14.4-27.2-4.8-38.4l148.8-185.6c9.6-12.8 27.2-14.4 38.4-4.8 12.8 9.6 14.4 27.2 4.8 38.4l-148.8 185.6c-3.2 8-11.2 11.2-20.8 11.2zM225.6 710.4c-6.4 0-12.8-1.6-17.6-6.4-12.8-9.6-14.4-27.2-4.8-38.4l22.4-27.2c9.6-12.8 27.2-14.4 38.4-4.8 12.8 9.6 14.4 27.2 4.8 38.4l-22.4 27.2c-4.8 8-12.8 11.2-20.8 11.2zM681.6 360c-43.2 0-78.4-35.2-78.4-78.4s35.2-78.4 78.4-78.4 78.4 35.2 78.4 78.4-35.2 78.4-78.4 78.4z m0-120c-22.4 0-41.6 19.2-41.6 41.6s19.2 41.6 41.6 41.6 41.6-19.2 41.6-41.6S704 240 681.6 240z" fill="#103E26" p-id="1136"></path><path d="M676.8 305.6c-8 0-16-4.8-17.6-12.8-8-25.6-27.2-112 20.8-192 49.6-80 137.6-105.6 262.4-73.6 9.6 3.2 16 12.8 12.8 22.4-3.2 9.6-12.8 16-22.4 12.8-108.8-27.2-180.8-9.6-220.8 56s-22.4 140.8-16 161.6c3.2 9.6-3.2 20.8-12.8 22.4-3.2 1.6-4.8 3.2-6.4 3.2z" fill="#103E26" p-id="1137"></path></svg>