<?xml version="1.0" standalone="no"?><!DOCTYPE svg PUBLIC "-//W3C//DTD SVG 1.1//EN" "http://www.w3.org/Graphics/SVG/1.1/DTD/svg11.dtd"><svg t="1621855713699" class="icon" viewBox="0 0 1024 1024" version="1.1" xmlns="http://www.w3.org/2000/svg" p-id="4828" data-spm-anchor-id="a313x.7781069.0.i7" xmlns:xlink="http://www.w3.org/1999/xlink" width="200" height="200"><defs><style type="text/css"></style></defs><path d="M337.984 793.024c-16.064 0-28.992-12.608-28.992-28.096v-309.12c0-15.552 12.992-28.096 28.992-28.096 16.064 0 28.992 12.608 28.992 28.096v309.056c0 15.552-12.992 28.16-28.992 28.16z m174.016 0c-16.064 0-28.992-12.608-28.992-28.096v-309.12c0-15.552 12.992-28.096 28.992-28.096 16.064 0 28.992 12.608 28.992 28.096v309.056c0 15.552-12.928 28.16-28.992 28.16z m174.016 0c-16.064 0-28.992-12.608-28.992-28.096v-309.12c0-15.552 12.992-28.096 28.992-28.096 16.064 0 28.992 12.608 28.992 28.096v309.056c0.064 15.552-12.928 28.16-28.992 28.16zM918.08 287.168v28.096h-58.048v533.952C860.032 911.168 808 961.6 744 961.6H279.936c-64 0-116.032-50.432-116.032-112.384V315.264H105.92v-28.096H76.864v-28.096c0-61.952 52.032-112.384 116.032-112.384h120.128C326.016 98.304 371.072 62.4 424.96 62.4h174.08c53.888 0 98.944 35.904 111.936 84.288h120.128c64 0 116.032 50.432 116.032 112.384v28.096H918.08z m-638.144 618.24h464.128c32 0 57.984-25.216 57.984-56.192V315.264H221.952l-4.032 533.952c0 30.976 30.08 56.192 62.016 56.192zM599.04 118.592H424.96c-21.376 0-39.872 11.392-49.92 28.096h273.92c-10.048-16.704-28.544-28.096-49.92-28.096z m232.064 84.288H192.896c-32 0-57.984 25.216-57.984 56.192H889.088c0-30.976-26.048-56.192-57.984-56.192z" fill="#ffffff" p-id="4829" data-spm-anchor-id="a313x.7781069.0.i8" class="selected"></path></svg>