<?xml version="1.0" standalone="no"?><!DOCTYPE svg PUBLIC "-//W3C//DTD SVG 1.1//EN" "http://www.w3.org/Graphics/SVG/1.1/DTD/svg11.dtd"><svg t="1621762178117" class="icon" viewBox="0 0 1024 1024" version="1.1" xmlns="http://www.w3.org/2000/svg" p-id="1331" xmlns:xlink="http://www.w3.org/1999/xlink" width="200" height="200"><defs><style type="text/css"></style></defs><path d="M756.8 928H475.2c-86.4 0-155.2-70.4-155.2-155.2v-46.4c0-86.4 70.4-155.2 155.2-155.2h281.6c86.4 0 155.2 70.4 155.2 155.2v46.4c0 84.8-70.4 155.2-155.2 155.2z" fill="#ECBC28" p-id="1332" data-spm-anchor-id="a313x.7781069.0.i2" class="selected"></path><path d="M688 848H324.8c-52.8 0-94.4-46.4-94.4-102.4V324.8c0-11.2 9.6-20.8 20.8-20.8s20.8 9.6 20.8 20.8v422.4c0 33.6 24 62.4 54.4 62.4H688c30.4 0 54.4-27.2 54.4-62.4V326.4c0-11.2 9.6-20.8 20.8-20.8s20.8 9.6 20.8 20.8v419.2c-1.6 57.6-43.2 102.4-96 102.4zM867.2 220.8h-720c-11.2 0-20.8-9.6-20.8-20.8s9.6-20.8 20.8-20.8h720c11.2 0 20.8 9.6 20.8 20.8s-9.6 20.8-20.8 20.8z" fill="#103E26" p-id="1333"></path><path d="M371.2 220.8c-11.2 0-19.2-9.6-20.8-19.2l-1.6-80c0-4.8 1.6-11.2 6.4-14.4 3.2-3.2 9.6-6.4 14.4-6.4h272c11.2 0 20.8 9.6 20.8 20.8v80c0 11.2-9.6 20.8-20.8 20.8s-20.8-9.6-20.8-20.8V140.8H390.4l1.6 59.2c0 11.2-8 19.2-20.8 20.8 1.6 0 1.6 0 0 0zM424 748.8c-11.2 0-20.8-9.6-20.8-20.8v-352c0-11.2 9.6-20.8 20.8-20.8s20.8 9.6 20.8 20.8v352c0 11.2-9.6 20.8-20.8 20.8zM584 748.8c-11.2 0-20.8-9.6-20.8-20.8v-352c0-11.2 9.6-20.8 20.8-20.8s20.8 9.6 20.8 20.8v352c0 11.2-9.6 20.8-20.8 20.8z" fill="#103E26" p-id="1334"></path></svg>