<?xml version="1.0" standalone="no"?><!DOCTYPE svg PUBLIC "-//W3C//DTD SVG 1.1//EN" "http://www.w3.org/Graphics/SVG/1.1/DTD/svg11.dtd"><svg t="1621762189464" class="icon" viewBox="0 0 1024 1024" version="1.1" xmlns="http://www.w3.org/2000/svg" p-id="1528" data-spm-anchor-id="a313x.7781069.0.i4" xmlns:xlink="http://www.w3.org/1999/xlink" width="200" height="200"><defs><style type="text/css"></style></defs><path d="M772.8 928H491.2c-86.4 0-155.2-70.4-155.2-155.2v-46.4c0-86.4 70.4-155.2 155.2-155.2h281.6c86.4 0 155.2 70.4 155.2 155.2v46.4c0 84.8-70.4 155.2-155.2 155.2z" fill="#ECBC28" p-id="1529" data-spm-anchor-id="a313x.7781069.0.i5" class="selected"></path><path d="M720 851.2H272c-62.4 0-113.6-46.4-113.6-104V241.6c0-57.6 51.2-104 113.6-104h235.2c12.8 0 22.4 9.6 22.4 22.4s-9.6 22.4-22.4 22.4H272c-38.4 0-68.8 27.2-68.8 59.2v504c0 32 30.4 59.2 68.8 59.2h448c38.4 0 68.8-27.2 68.8-59.2V326.4c0-12.8 9.6-22.4 22.4-22.4s22.4 9.6 22.4 22.4v419.2c0 57.6-51.2 105.6-113.6 105.6z" fill="#103E26" p-id="1530"></path><path d="M526.4 376c-6.4 0-11.2-1.6-16-6.4-8-9.6-8-22.4 1.6-32L793.6 70.4c9.6-8 22.4-8 32 1.6 8 9.6 8 22.4-1.6 32L542.4 369.6c-4.8 4.8-9.6 6.4-16 6.4zM688 446.4H320c-12.8 0-22.4-9.6-22.4-22.4s9.6-22.4 22.4-22.4h368c12.8 0 22.4 9.6 22.4 22.4s-9.6 22.4-22.4 22.4zM688 574.4H320c-12.8 0-22.4-9.6-22.4-22.4s9.6-22.4 22.4-22.4h368c12.8 0 22.4 9.6 22.4 22.4s-9.6 22.4-22.4 22.4zM688 686.4H320c-12.8 0-22.4-9.6-22.4-22.4s9.6-22.4 22.4-22.4h368c12.8 0 22.4 9.6 22.4 22.4s-9.6 22.4-22.4 22.4z" fill="#103E26" p-id="1531"></path></svg>