<?xml version="1.0" standalone="no"?><!DOCTYPE svg PUBLIC "-//W3C//DTD SVG 1.1//EN" "http://www.w3.org/Graphics/SVG/1.1/DTD/svg11.dtd"><svg t="1621855517276" class="icon" viewBox="0 0 1024 1024" version="1.1" xmlns="http://www.w3.org/2000/svg" p-id="2094" xmlns:xlink="http://www.w3.org/1999/xlink" width="200" height="200"><defs><style type="text/css"></style></defs><path d="M390.591883 253.785054c-17.254989 0-31.235398 13.980409-31.235398 31.235398l0 30.473035c0 17.254989 13.980409 31.235398 31.235398 31.235398 17.254989 0 31.235398-13.980409 31.235398-31.235398l0-30.473035C421.827281 267.765463 407.846872 253.785054 390.591883 253.785054z" p-id="2095"></path><path d="M634.372072 253.785054c-17.254989 0-31.235398 13.980409-31.235398 31.235398l0 30.473035c0 17.254989 13.980409 31.235398 31.235398 31.235398 17.254989 0 31.235398-13.980409 31.235398-31.235398l0-30.473035C665.60747 267.765463 651.627061 253.785054 634.372072 253.785054z" p-id="2096"></path><path d="M589.283154 394.851906c-14.540158-9.293667-33.847899-5.073552-43.151799 9.456373-0.121773 0.193405-13.380752 19.451004-33.970696 19.451004-19.989263 0-32.42448-18.098193-33.278941-19.36914-9.181103-14.417361-28.28623-18.830881-42.836621-9.761318-14.651698 9.100262-19.156292 28.357861-10.045797 43.00956 11.215436 18.048051 41.98216 48.591695 86.161359 48.591695 43.955094 0 75.098395-30.31033 86.577844-48.225351C608.042403 423.484014 603.812055 404.154783 589.283154 394.851906z" p-id="2097"></path><path d="M248.909 483.33924c-12.983709 11.357675-14.305821 30.582529-2.958378 43.566238L491.489874 806.685579c5.938246 6.78145 14.509459 8.633634 23.517623 8.633634 0.051165 0 0.11154 0 0.162706 0 9.069563 0 17.661242-1.992377 23.558555-8.886391l240.486166-278.767028c11.224646-13.096273 9.699919-32.836873-3.406586-44.052309-13.096273-11.215436-32.831756-9.752108-44.035936 3.374864L514.76395 740.313939 292.985868 486.553445C281.607726 473.54927 261.86201 471.991798 248.909 483.33924z" p-id="2098"></path><path d="M231.207849 436.722526c17.000186-2.928702 28.409027-19.084661 25.490557-36.084846-1.972934-11.438517-2.968611-22.724561-2.968611-33.56342 0-129.495306 116.074645-234.843656 258.757299-234.843656 142.673443 0 258.747065 105.347327 258.747065 234.843656 0 10.940167-1.017166 22.338774-3.019777 33.878598-2.948145 16.989953 8.439206 33.167401 25.439392 36.115546 1.810229 0.315178 3.598968 0.467651 5.378497 0.467651 14.905478 0 28.103058-10.717086 30.737048-25.907043 2.613524-15.057951 3.934612-30.045293 3.934612-44.554752 0-163.943886-144.096862-297.313429-321.217862-297.313429S191.258998 203.12935 191.258998 367.073236c0 14.377452 1.301645 29.231765 3.864004 44.158732C198.061938 428.232155 214.248595 439.609273 231.207849 436.722526z" p-id="2099"></path><path d="M951.84361 862.95207c-35.281551-62.419631-70.960145-124.625392-106.628506-186.831152L832.617182 654.148487c-8.591679-14.966876-27.666106-20.151969-42.632983-11.56029-14.966876 8.581446-20.141736 27.666106-11.56029 42.632983l12.597923 21.972431c35.08917 61.198827 70.187549 122.398678 105.184621 184.391591-0.010233 0-0.020466 0-0.030699 0l-399.925459 0.020466c-32.191166 0-64.381309-0.040932-96.572476-0.080841-88.215134-0.14224-179.429579-0.234337-269.220604 0.558725-1.342578 0.040932-2.440585-0.213871-3.050476-0.436952 0.162706-0.549515 0.49835-1.362021 1.108241-2.38942 27.818579-46.812165 55.047734-94.854345 81.372286-141.3104 11.245112-19.847024 22.50148-39.705304 33.818223-59.511395 8.56098-14.97711 3.355421-34.051537-11.621688-42.612517-14.94641-8.550747-34.051537-3.355421-42.612517 11.621688-11.357675 19.86749-22.64372 39.786145-33.929764 59.7048-26.172079 46.181809-53.238528 93.939509-80.721463 140.191926-12.618389 21.199835-13.360286 45.662992-2.00261 65.429175 11.458983 19.939121 32.92283 31.783891 57.508785 31.783891 0.224104 0 0.457418 0 0.681522 0 89.496313-0.793062 180.558285-0.701988 268.590248-0.559748 32.221866 0.040932 64.432475 0.081864 96.65434 0.081864l399.935692-0.020466c23.853267 0 44.799322-11.489682 56.023968-30.726815C962.946482 904.913764 962.814476 882.351909 951.84361 862.95207z" p-id="2100"></path></svg>