<?xml version="1.0" standalone="no"?><!DOCTYPE svg PUBLIC "-//W3C//DTD SVG 1.1//EN" "http://www.w3.org/Graphics/SVG/1.1/DTD/svg11.dtd"><svg t="1621854122270" class="icon" viewBox="0 0 1038 1024" version="1.1" xmlns="http://www.w3.org/2000/svg" p-id="2201" xmlns:xlink="http://www.w3.org/1999/xlink" width="202.734375" height="200"><defs><style type="text/css"></style></defs><path d="M839.316 196.494h-503.22c-39.168 57.308-79.924 113.045-116.91 172.53 54.541 58.88 23.73 202.967 111.827 228.35 26.748-34.191 6.583-115.216 35.581-147.156 60.247 78.554 37.516 239.949 45.748 370.436 164.357 11.832 350.73 1.691 523.553 5.07V470.515c19.818-10.67 58.457-2.54 86.413-5.075-55.894-94.744-124.596-176.702-182.992-268.946z m-472.72 441.48c-167.779 11.878-103.525-207.889-198.24-268.95-13.018 5.615-9.984 27.253-10.166 45.675-13.92-8.095-25.081-18.94-40.667-25.378-3.067 74.745-71.47 84.263-116.908 116.713 4.257 56.645 71.752 50.156 116.908 65.973-11.392 80.904 18.208 137.184 30.5 208.047-53.285 0.758-92.652-12.377-137.242-20.297-41.126 62.943 45.033 77.83 96.577 81.189h106.744c44.083-10.117 103.168-5.255 147.409-15.222 11.576-52.722 1.907-126.654 5.084-187.75z" p-id="2202"></path></svg>