<?xml version="1.0" standalone="no"?><!DOCTYPE svg PUBLIC "-//W3C//DTD SVG 1.1//EN" "http://www.w3.org/Graphics/SVG/1.1/DTD/svg11.dtd"><svg t="1621854243831" class="icon" viewBox="0 0 1040 1024" version="1.1" xmlns="http://www.w3.org/2000/svg" p-id="16237" xmlns:xlink="http://www.w3.org/1999/xlink" width="203.125" height="200"><defs><style type="text/css"></style></defs><path d="M1010.976382 503.002069l0.11154-0.119727L824.855404 313.850058 824.855404 186.797383c0-26.074865-16.156982-42.351574-42.664705-42.351574-26.50977 0-46.220694 18.36323-46.220694 44.436048l0 43.394323L547.109636 46.51029l-0.027629 0.027629c-7.638981-8.05956-18.10945-13.486152-29.854958-14.742772-0.049119-0.004093-0.093121-0.011256-0.141216-0.01535-0.714268-0.074701-1.434675-0.127913-2.156106-0.172939-0.134053-0.008186-0.26913-0.020466-0.403183-0.027629-0.835018-0.047072-1.678222-0.069585-2.527566-0.069585-0.00614 0-0.013303-0.00307-0.019443-0.00307-13.594623 0-25.863041 5.577019-34.594913 14.508435L14.748912 501.07109c-9.082866 8.588609-14.748912 20.650319-14.748912 34.028001 0 26.071795 21.4925 47.208185 48.00227 47.208185 13.130042 0 25.031093-5.191232 33.69645-13.599739l0.021489 0.021489 430.259324-423.210791 0 0.010233 1.226944 1.136893-0.00614 0.027629 430.012707 422.958034 0.11154-0.11154c8.576329 7.858992 19.989263 12.767791 32.634258 12.767791 26.50977 0 47.998177-21.135366 47.998177-47.208185C1023.957021 522.655687 1018.96738 511.425925 1010.976382 503.002069z" p-id="16238"></path><path d="M113.774253 596.190471l0 155.286716 0 70.585615 0 127.053698c0 26.068725 17.934464 42.354644 44.444235 42.354644l254.211772-0.005117 199.101617 0 254.211772 0.005117c26.505677 0 44.439118-16.285918 44.439118-42.354644l0-127.053698 0-70.585615 0-155.286716L511.979534 204.617238 113.774253 596.190471zM430.203042 546.70236c29.632901-6.574742 60.809971 19.637246 69.651336 58.633399 8.777921 38.905078-8.140401 75.81778-37.807071 82.386382-29.611411 6.591115-60.803831-19.632129-69.605288-58.544371C383.613958 590.220502 400.557862 553.298592 430.203042 546.70236zM357.749894 769.768785c-28.770254 9.550517-62.509682-13.374612-75.261101-51.193962-12.825097-37.85619 0.216941-76.30999 29.010731-85.863576 28.805046-9.552563 62.529125 13.362332 75.366502 51.271734C399.60721 721.763444 386.575406 760.197802 357.749894 769.768785zM621.579721 823.188438c-1.852184 49.040926-55.385425 86.818321-119.516024 84.431971-64.142879-2.366907-114.625644-44.068681-112.777553-93.097328 1.871627-49.0266 55.376215-86.822414 119.55491-84.451414C572.922535 732.47132 623.428835 774.179234 621.579721 823.188438zM721.046107 641.283482c26.850531 14.056134 33.440623 54.083779 14.644535 89.410356-18.751063 35.260062-55.807027 52.463885-82.659605 38.415938-26.861788-14.06125-33.462113-54.064336-14.70491-89.355097C657.128355 644.437312 694.145433 627.245767 721.046107 641.283482zM528.458857 605.353155c12.17939-38.069037 45.539172-61.515029 74.494645-52.417837 28.981055 9.117658 42.608423 47.335075 30.422893 85.409229-12.147668 38.008662-45.506427 61.448514-74.467015 52.349275C529.951861 681.57514 516.305049 643.36591 528.458857 605.353155z" p-id="16239"></path></svg>