<?xml version="1.0" standalone="no"?><!DOCTYPE svg PUBLIC "-//W3C//DTD SVG 1.1//EN" "http://www.w3.org/Graphics/SVG/1.1/DTD/svg11.dtd"><svg t="1621856056406" class="icon" viewBox="0 0 1024 1024" version="1.1" xmlns="http://www.w3.org/2000/svg" p-id="2576" xmlns:xlink="http://www.w3.org/1999/xlink" width="200" height="200"><defs><style type="text/css"></style></defs><path d="M445.114149 871.645057C207.167828 871.645057 13.415033 677.981289 13.323958 439.919335 13.415033 201.754027 207.167828 7.953136 445.2042 7.909134c238.121306 0 431.882288 193.753819 431.966199 431.92629C877.170398 677.930123 683.41658 871.645057 445.114149 871.645057L445.114149 871.645057 445.114149 871.645057zM445.2042 53.515844C232.280786 53.56087 59.021743 226.883357 58.929646 439.919335c0.092098 212.906018 173.350117 386.091382 386.18348 386.091382 213.081003 0 386.449539-173.231413 386.449539-386.175293C831.478753 226.845495 658.195152 53.515844 445.2042 53.515844L445.2042 53.515844 445.2042 53.515844zM445.2042 53.515844" p-id="2577" fill="#8a8a8a"></path><path d="M189.540356 439.698301l-45.63434 0c0-166.147064 135.242194-301.31865 301.298184-301.31865l0 45.607734C304.261167 183.981245 189.540356 298.709219 189.540356 439.698301L189.540356 439.698301 189.540356 439.698301zM189.540356 439.698301" p-id="2578" fill="#8a8a8a"></path><path d="M987.010039 1021.950318c-5.78475 0-11.661597-2.203178-16.121166-6.66377L716.907345 761.331625c-8.919137-8.892531-8.919137-23.331381 0-32.250518 8.919137-8.898671 23.337521-8.898671 32.255635 0l253.975389 253.955946c8.892531 8.912997 8.892531 23.330358 0 32.249495C998.677776 1019.746116 992.893027 1021.950318 987.010039 1021.950318L987.010039 1021.950318 987.010039 1021.950318zM987.010039 1021.950318" p-id="2579" fill="#8a8a8a"></path></svg>