<?xml version="1.0" standalone="no"?><!DOCTYPE svg PUBLIC "-//W3C//DTD SVG 1.1//EN" "http://www.w3.org/Graphics/SVG/1.1/DTD/svg11.dtd"><svg t="1621854085156" class="icon" viewBox="0 0 1024 1024" version="1.1" xmlns="http://www.w3.org/2000/svg" p-id="772" xmlns:xlink="http://www.w3.org/1999/xlink" width="200" height="200"><defs><style type="text/css"></style></defs><path d="M746.4448 214.1952c7.0272-33.6896-19.648-162.8672-67.392-188.16-48.64 14.5152-88.4608 95.4752-88.4608 146.0352 12.6336 32.3072 122.1632 84.2496 155.8528 42.1248z" p-id="773"></path><path d="M982.8096 116.8512c-4.096-22.7968-73.9584-24.32-102.976-29.952s-42.24-62.4768-97.28-71.1424c-25.28-3.9808-57.6896-5.504-71.68 0.4608 56.9856 73.1392 73.4848 178.7904 60.736 209.5104-12.3136 29.696-61.824 29.3504-94.72 25.3312-29.7856-3.648-69.4912-23.2832-93.8368-49.024 1.8688 13.0944 12.4032 57.792-7.9488 99.9168-19.7632 40.8832-88.4608 103.68-143.6928 171.52-62.72 76.992-125.8368 199.1936-143.2192 260.2368C266.24 810.944 271.1552 861.44 283.8016 919.04 217.8048 891.6736 174.08 803.2768 184.32 721.5488c11.2256-88.9216 92.672-175.9872 99.2128-247.1168s-76.8-132.928-87.04-134.7968-3.7376 143.2192-14.08 137.6-20.5824-19.2-31.3472-29.952c-18.7264 5.6192-45.6448 100.3904-36.0448 146.9568-6.5536 0-20.1216-7.2448-37.44-14.976-22.4128 36.5056-8.6144 108.096 8.4736 156.3264C71.0784 731.84 41.4208 709.12 41.4208 709.12c-18.0864 181.8368 128 240.1664 147.5968 249.2288 21.2992 9.8304 47.9744 16.64 91.1616 21.76 35.52 4.2624 111.0272 4.6336 136.3072 5.568s116.1728 21.9904 139.52 24.1024c32.5376 2.9568 63.2704 2.8288 95.7184-3.0464 38.848-7.0144 27.8528-37.44 17.5488-44.224-9.408-6.208-37.44-8.896-49.6128-13.568s-9.3696-23.04 1.856-35.2 17.7536-60.5952 16.3456-96.64c-1.664-42.6496-24.6656-74.8544-53.6832-81.408s-64.2048 1.28-116.16 22.2848c18.7264-29.952 51.9552-58.5088 115.136-55.6928 66.4064 2.944 90.8032 64.1152 94.5408 113.2672 3.0848 40.512-9.5744 91.7888-16.128 100.2112s0.6912 31.7696 28.3008 58.4448c37.12 35.84 89.3312 42.24 114.2016 12.1728 24.32-29.44-59.0208-67.3536-59.904-112.3328-0.6144-30.8736 1.7536-161.8176 2.688-173.056S770.432 650.24 776.96 640s25.28-8.4352 42.4832-2.816c4.2112-21.4144 5.2608-63.1808 1.7536-92.3136 10.24 1.8688 19.776 1.1648 33.1136-1.8816-1.8816-17.7792-41.8944-74.176-41.8944-74.176 11.52 4.2496 32.96 4.6464 48.64 0-3.7504-14.976-48.64-78.1696-53.3632-90.3296s-5.12-63.6544 2.816-97.8176c7.4496-32 63.6544-20.5952 99.2256-40.256s82.9056-68.8 73.0752-123.5584z m-159.8464 19.2A23.168 23.168 0 1 1 846.08 112.832a23.168 23.168 0 0 1-23.1168 23.168z" p-id="774"></path></svg>