<?xml version="1.0" standalone="no"?><!DOCTYPE svg PUBLIC "-//W3C//DTD SVG 1.1//EN" "http://www.w3.org/Graphics/SVG/1.1/DTD/svg11.dtd"><svg t="1621856727063" class="icon" viewBox="0 0 1112 1024" version="1.1" xmlns="http://www.w3.org/2000/svg" p-id="7926" xmlns:xlink="http://www.w3.org/1999/xlink" width="217.1875" height="200"><defs><style type="text/css"></style></defs><path d="M795.1 289v-31.8c0-70-57-127-127-127H356.3c-70 0-127 57-127 127V289c-88 1.6-159.1 73.6-159.1 162v281.3c0 89.3 72.7 162 162 162h560c89.3 0 162-72.7 162-162V451c0-43.3-16.8-83.9-47.4-114.5-29.9-30-69.5-46.8-111.7-47.5z m105.1 443.2c0 59.6-48.5 108-108 108h-560c-59.6 0-108-48.5-108-108V451c0-59.6 48.5-108 108-108h51.1v-85.7c0-40.3 32.8-73 73-73h311.8c40.3 0 73 32.8 73 73V343h51.1c28.9 0 56 11.2 76.4 31.6s31.6 47.5 31.6 76.4v281.2z" fill="#707070" p-id="7927" data-spm-anchor-id="a313x.7781069.0.i18" class="selected"></path><path d="M429.6 305.3h176.8c16.6 0 30-13.4 30-30s-13.4-30-30-30H429.6c-16.6 0-30 13.4-30 30 0 16.5 13.5 30 30 30zM1082.5 127.7h-58.4V69.3c0-16.6-13.4-30-30-30s-30 13.4-30 30v58.4h-58.4c-16.6 0-30 13.4-30 30s13.4 30 30 30h58.4v58.4c0 16.6 13.4 30 30 30s30-13.4 30-30v-58.4h58.4c16.6 0 30-13.4 30-30s-13.4-30-30-30zM512.2 388.2c-101.3 0-183.8 82.4-183.8 183.8 0 101.3 82.4 183.8 183.8 183.8C613.6 755.7 696 673.3 696 572c0-101.4-82.4-183.8-183.8-183.8z m0 318.7c-74.4 0-135-60.5-135-135 0-74.4 60.5-135 135-135 74.4 0 135 60.5 135 135s-60.5 135-135 135zM815.9 412h-42.8c-16.6 0-30 13.4-30 30s13.4 30 30 30h42.8c16.6 0 30-13.4 30-30s-13.5-30-30-30z" fill="#727272" p-id="7928"></path></svg>